<?xml version="1.0" standalone="no"?>
<!DOCTYPE svg PUBLIC "-//W3C//DTD SVG 20010904//EN"
 "http://www.w3.org/TR/2001/REC-SVG-20010904/DTD/svg10.dtd">
<svg version="1.0" xmlns="http://www.w3.org/2000/svg"
 width="400.000000pt" height="400.000000pt" viewBox="0 0 400.000000 400.000000"
 preserveAspectRatio="xMidYMid meet">
<metadata>
Created by potrace 1.14, written by Peter Selinger 2001-2017
</metadata>
<g transform="translate(0.000000,400.000000) scale(0.100000,-0.100000)"
fill="#000000" stroke="none">
<path d="M0 2000 l0 -2000 2000 0 2000 0 0 2000 0 2000 -2000 0 -2000 0 0
-2000z m1575 -65 c102 -22 190 -68 261 -139 103 -103 162 -233 189 -414 61
-401 -82 -785 -341 -915 -121 -61 -176 -67 -589 -67 l-365 0 0 775 0 775 388
0 c302 0 402 -4 457 -15z m1577 -4 c110 -28 174 -65 249 -141 163 -166 232
-455 184 -772 -45 -300 -195 -507 -425 -589 -63 -23 -76 -24 -467 -27 l-403
-3 0 775 0 776 393 0 c357 0 401 -2 469 -19z"/>
<path d="M1040 1181 l0 -513 198 4 c193 3 198 4 254 31 93 46 157 137 195 277
25 92 25 336 0 441 -21 90 -69 174 -116 206 -65 44 -124 55 -333 60 l-198 6 0
-512z"/>
<path d="M2607 1683 c-4 -3 -7 -233 -7 -510 l0 -503 178 0 c199 0 251 10 320
60 56 40 107 119 139 215 25 74 27 93 27 250 1 183 -11 251 -59 344 -59 117
-158 150 -451 151 -77 0 -144 -3 -147 -7z"/>
</g>
</svg>
